<svg width="200" height="204" viewBox="0 0 200 204" fill="none" xmlns="http://www.w3.org/2000/svg">
<path d="M74.2897 4.04211C56.2553 5.94524 46.9272 8.00696 26.2498 14.5093L8.06 20.3773V44.4835C8.06 57.8054 8.83734 74.2991 9.77015 80.9601C16.4553 130.759 47.7045 175.323 91.7022 198.002L99.7866 202.126L108.026 198.002C152.024 175.323 182.962 130.917 189.803 80.9601C190.736 74.2991 191.513 57.8054 191.513 44.4835V20.2187L175.655 15.3023C138.498 3.56633 108.959 0.23587 74.2897 4.04211ZM147.982 11.6546C163.84 15.1437 177.055 19.4257 172.235 19.5843C166.949 19.9015 158.554 26.4038 153.423 34.6507C150.625 39.0913 147.049 44.0077 145.339 45.4351C142.385 48.1312 142.23 47.9726 139.587 40.5187C134.456 25.7695 123.262 19.7429 101.186 19.7429C76.9327 19.7429 67.6045 24.0249 60.9194 38.6156C58.8983 43.0562 56.7217 46.7038 56.0998 46.7038C54.8561 46.7038 50.8139 41.7874 43.9733 31.4788C41.4858 27.8312 36.5108 23.5491 32.935 21.646L26.4053 18.3156L34.6452 15.9366C42.5741 13.3991 62.3186 9.4343 73.3569 8.00696C87.0381 6.26242 133.523 8.48274 147.982 11.6546ZM31.3803 26.0866C35.267 28.1484 39.4647 32.2718 42.885 37.664C45.6834 42.4218 49.8811 47.6554 52.2131 49.3999C55.7889 52.2546 56.2553 53.8405 56.2553 62.246C56.2553 67.6382 55.478 72.396 54.5452 73.0304C53.4569 73.6648 53.1459 76.5195 53.6123 80.1671C54.3897 86.0351 54.2342 86.3523 50.0366 86.3523C44.5952 86.3523 43.8178 84.4491 42.7295 66.8452C42.2631 59.2327 41.1748 53.0476 40.242 53.0476C39.3092 53.0476 38.9983 59.0741 39.7756 70.3343L40.7084 87.621L36.1998 91.1101L31.5358 94.4406L29.8256 88.414C28.8928 85.0835 27.6491 72.8718 27.1827 61.2945C26.7162 49.8757 25.628 40.3601 25.0061 40.3601C22.985 40.3601 23.4514 70.8101 25.628 85.5593C27.3381 97.4538 27.3381 98.7226 24.2287 105.225L20.9639 112.203L17.2327 98.8812C14.1233 87.4624 13.5014 81.1187 13.035 54.1577L12.4131 22.9148H18.7873C22.3631 22.9148 27.96 24.3421 31.3803 26.0866ZM186.538 54.1577C186.072 80.9601 185.45 87.4624 182.34 98.564L178.765 111.727L175.344 104.908C172.235 98.7226 172.235 97.4538 173.945 85.5593C176.122 70.8101 176.588 40.3601 174.567 40.3601C173.945 40.3601 172.857 49.8757 172.39 61.2945C171.924 72.8718 170.68 85.0835 169.747 88.2554L168.037 94.282L163.529 90.7929L159.02 87.4624L159.953 70.1757C160.575 59.0741 160.419 53.0476 159.331 53.0476C158.398 53.0476 157.31 59.2327 156.844 66.8452C155.755 84.4491 154.978 86.3523 149.537 86.3523C145.339 86.3523 145.183 86.0351 145.961 80.1671C146.427 76.5195 146.116 73.6648 145.028 73.0304C144.095 72.396 143.318 67.6382 143.318 62.246C143.318 53.8405 143.784 52.2546 147.36 49.3999C149.692 47.6554 153.89 42.2632 156.844 37.5054C162.907 27.9898 171.147 23.0734 181.097 22.9148H187.16L186.538 54.1577ZM97.2991 28.7827C96.6772 31.3202 95.278 35.1265 94.1897 37.3468C92.0131 41.6288 83.4623 49.8757 81.1303 49.8757C80.353 49.8757 78.4873 50.3515 76.9327 50.9859C74.6006 51.7788 74.6006 51.4616 77.5545 48.1312C79.4202 46.0695 82.3741 40.8359 84.2397 36.3952C88.4373 26.2452 89.992 24.5007 94.5006 24.5007C97.7655 24.5007 98.2319 24.9765 97.2991 28.7827ZM110.98 27.1968C112.38 28.7827 114.245 32.7476 115.333 36.078C116.266 39.4085 118.909 44.1663 121.241 47.021L125.283 51.9374L121.397 50.6687C116.266 49.0827 108.026 42.5804 105.85 38.2984C104.762 36.3952 103.518 32.589 102.74 29.7343C101.808 24.9765 101.963 24.5007 105.228 24.5007C107.094 24.5007 109.737 25.7695 110.98 27.1968ZM81.9077 29.5757C78.3319 41.4702 73.8233 47.3382 66.8272 49.0827C61.3858 50.5101 61.0748 47.6554 65.5834 38.6156C70.403 29.0999 84.2397 21.4874 81.9077 29.5757ZM128.393 30.5273C131.813 33.8577 137.099 44.0077 137.099 47.6554C137.099 49.7171 136.166 50.0343 132.901 49.0827C130.414 48.4484 127.615 47.1796 126.527 46.2281C124.195 44.3249 119.531 35.2851 117.665 29.4171C116.577 25.9281 116.888 25.7695 120.93 26.721C123.418 27.3554 126.683 29.0999 128.393 30.5273ZM108.493 48.607C110.203 50.1929 114.09 52.4132 117.355 53.8405C121.863 55.7437 123.107 57.171 123.107 60.1843C123.107 63.6734 122.485 64.1491 117.821 64.1491C111.136 64.1491 102.585 70.9687 103.207 75.8851C103.673 78.7398 104.606 79.057 111.447 78.5812C115.644 78.4226 119.687 77.7882 120.308 77.471C123.107 75.7265 121.241 71.7616 116.577 69.6999L111.447 67.4796L116.577 67.321C119.687 67.321 122.796 68.5898 124.817 70.6515C127.771 73.6648 128.082 75.4093 127.46 87.1452C126.994 96.1851 125.905 101.736 123.729 105.542C120.153 111.727 105.694 121.243 99.7866 121.243C97.61 121.243 92.0131 118.864 87.3491 116.009C76.3108 109.507 72.8905 102.529 72.1131 86.1937C71.4912 75.4093 71.9577 73.5062 74.7561 70.6515C76.7772 68.5898 79.8866 67.321 83.1514 67.321L88.1264 67.4796L83.1514 69.6999C78.3319 71.7616 76.4662 75.7265 79.2647 77.471C79.8866 77.7882 83.9287 78.4226 88.1264 78.5812C94.967 79.057 95.8998 78.7398 96.3662 75.8851C96.9881 70.9687 88.4373 64.1491 81.7522 64.1491C77.2436 64.1491 76.4662 63.6734 76.4662 60.1843C76.4662 57.171 77.8655 55.7437 83.3069 53.3648C87.0381 51.6202 92.3241 47.3382 95.1225 43.6906L100.253 37.1882L102.896 41.6288C104.451 44.0077 106.938 47.1796 108.493 48.607ZM68.8483 56.2195C71.0248 56.2195 71.8022 57.3296 71.8022 60.6601C71.8022 67.0038 68.6928 70.6515 64.4952 69.5413C61.3858 68.7484 60.9194 67.4796 60.9194 61.453C60.9194 55.5851 61.3858 54.4749 63.4069 55.2679C64.8061 55.7437 67.1381 56.2195 68.8483 56.2195ZM139.12 58.1226C140.519 63.5148 138.809 68.4312 135.078 69.5413C130.88 70.6515 127.771 66.8452 127.771 60.8187C127.771 57.3296 128.548 56.3781 132.124 55.7437C134.456 55.4265 136.788 54.9507 137.255 54.7921C137.876 54.7921 138.654 56.2195 139.12 58.1226ZM66.2053 75.5679C69.4702 86.1937 68.0709 90.9515 62.6295 88.0968C59.2092 86.1937 56.8772 79.8499 58.4319 76.0437C59.5202 73.189 65.428 72.8718 66.2053 75.5679ZM141.452 78.7398C141.919 82.8632 137.41 89.5241 133.99 89.5241C132.28 89.5241 131.813 76.3609 133.523 74.6163C136.166 72.0788 140.986 74.6163 141.452 78.7398ZM63.0959 93.3304C67.1381 95.0749 68.5373 96.8195 70.2475 102.846C71.3358 106.969 72.8905 110.617 73.5123 111.093C74.2897 111.569 73.8233 113.948 72.5795 116.485C69.3147 122.829 71.3358 126.952 81.2858 135.675C98.5428 150.583 111.136 157.719 130.414 163.905L143.318 168.028L138.032 172.31L132.901 176.592L120.153 171.993C102.119 165.649 87.1936 155.975 71.1803 140.433C63.5623 132.979 58.1209 128.221 59.0537 129.966C61.8522 135.358 81.4412 154.548 90.9248 161.209C99.942 167.394 118.443 177.068 124.972 178.971L128.548 179.923L124.662 183.094C119.531 187.218 117.665 187.059 105.072 181.826C82.8405 172.627 62.4741 156.292 46.9272 135.358C35.7334 120.133 34.4897 120.926 45.217 136.468C59.5202 157.244 83.6178 177.226 106.316 187.218L113.779 190.39L106.627 193.879L99.6311 197.368L89.0592 191.817C66.6717 179.764 43.0405 155.975 31.3803 133.772C26.2498 123.78 25.0061 114.423 28.1155 106.969C33.5569 93.6476 49.2592 87.4624 63.0959 93.3304ZM160.264 94.4406C168.504 99.1984 171.769 104.749 172.546 114.899C173.323 125.049 170.836 131.393 159.642 147.411C149.692 161.526 146.738 163.905 140.519 162.16L135.544 160.733L144.251 150.266C153.268 139.481 161.974 126.476 161.974 123.939C161.974 123.146 158.865 126.635 155.133 131.71C151.402 136.944 144.251 145.191 139.12 150.266C130.258 158.988 129.792 159.305 124.972 157.561C122.174 156.609 119.997 155.499 119.997 155.023C119.997 154.548 124.195 149.631 129.326 144.08C142.23 129.966 144.095 124.891 132.28 136.309C126.838 141.543 120.464 147.569 118.132 149.631L113.934 153.437L109.115 150.266L104.451 147.252L114.556 138.847C120.153 134.089 125.905 128.221 127.149 125.842C129.17 121.719 129.17 120.767 126.994 116.644C125.75 113.948 125.283 111.569 126.061 111.093C126.683 110.617 128.237 106.969 129.326 102.846C130.88 97.1366 132.435 95.0749 136.166 93.3304C143.318 90.1585 153.734 90.6343 160.264 94.4406ZM108.804 131.393C108.493 137.737 107.56 139.798 104.14 142.336L100.097 145.508L95.278 142.019C91.0803 138.847 90.4584 137.578 90.4584 131.076V123.622H99.7866H109.27L108.804 131.393Z" fill="#2C2C30"/>
<path d="M94.6561 88.8898C91.0803 92.696 96.6772 97.9296 102.585 96.3437C107.249 95.2335 106.938 92.696 102.119 92.696C100.098 92.696 97.7655 91.5859 96.9881 90.3171C96.3663 88.8898 95.278 88.414 94.6561 88.8898Z" fill="#2C2C30"/>
<path d="M92.635 104.591C89.9921 106.652 90.6139 106.811 99.7866 106.811C108.959 106.811 109.581 106.652 106.938 104.591C105.228 103.322 101.963 102.212 99.7866 102.212C97.61 102.212 94.3452 103.322 92.635 104.591Z" fill="#2C2C30"/>
<path d="M97.1436 110.3C98.8537 111.41 100.719 111.41 102.585 110.3C104.762 108.873 104.295 108.714 99.7865 108.714C95.278 108.714 94.8115 108.873 97.1436 110.3Z" fill="#2C2C30"/>
</svg>
